# xmcd CD database file
#
# Track frame offsets:
#	150
#	18460
#	44472
#	72190
#	89942
#	123070
#	160107
#	191757
#	216302
#
# Disc length: 3261 seconds
#
# Revision: 0
# Processed by: cddbd v1.5PL3 Copyright (c) Steve Scherf et al.
# Submitted via: CDex 1.51
#
DISCID=800cbb09
DTITLE=Francesca Tanksley - Journey
DYEAR=2002
DGENRE=Jazz
TTITLE0=Into The Light
TTITLE1=Dance In The Question
TTITLE2=In Grace
TTITLE3=Trickster
TTITLE4=Simple Heart
TTITLE5=Journey Without Distance
TTITLE6=Earnestly, Tenderly
TTITLE7=Prayer
TTITLE8=Never Defeated
EXTD=YEAR: 2002
EXTT0=
EXTT1=
EXTT2=
EXTT3=
EXTT4=
EXTT5=
EXTT6=
EXTT7=
EXTT8=
PLAYORDER=
